<svg width="22" height="22" viewBox="0 0 22 22" fill="none" xmlns="http://www.w3.org/2000/svg">
<path d="M5.93091 10.9668C5.50663 11.3203 5.44931 11.9509 5.80287 12.3752C6.15644 12.7994 6.787 12.8568 7.21128 12.5032L5.93091 10.9668ZM10.8138 8.19941L11.4539 7.43119C11.0831 7.12215 10.5444 7.12215 10.1736 7.43119L10.8138 8.19941ZM14.4162 12.5032C14.8405 12.8568 15.4711 12.7994 15.8247 12.3752C16.1782 11.9509 16.1209 11.3203 15.6966 10.9668L14.4162 12.5032ZM7.21128 12.5032L11.4539 8.96764L10.1736 7.43119L5.93091 10.9668L7.21128 12.5032ZM10.1736 8.96764L14.4162 12.5032L15.6966 10.9668L11.4539 7.43119L10.1736 8.96764ZM19.2 10.6C19.2 15.3496 15.3496 19.2 10.6 19.2V21.2C16.4542 21.2 21.2 16.4542 21.2 10.6H19.2ZM10.6 19.2C5.85035 19.2 2 15.3496 2 10.6H0C0 16.4542 4.74578 21.2 10.6 21.2V19.2ZM2 10.6C2 5.85035 5.85035 2 10.6 2V0C4.74578 0 0 4.74578 0 10.6H2ZM10.6 2C15.3496 2 19.2 5.85035 19.2 10.6H21.2C21.2 4.74578 16.4542 0 10.6 0V2Z" fill="#D55B3E"/>
</svg>
