<svg width="52" height="49" viewBox="0 0 52 49" fill="none" xmlns="http://www.w3.org/2000/svg">
<path d="M36.8334 4.08307H15.1667C9.18362 4.08307 4.33337 8.65349 4.33337 14.2914V34.7081C4.33337 40.346 9.18362 44.9164 15.1667 44.9164H36.8334C42.8165 44.9164 47.6667 40.346 47.6667 34.7081V14.2914C47.6667 8.65349 42.8165 4.08307 36.8334 4.08307Z" stroke="black" stroke-width="2" stroke-linecap="round" stroke-linejoin="round"/>
<path d="M34.6666 23.2135C34.934 24.9127 34.626 26.648 33.7864 28.1728C32.9468 29.6975 31.6184 30.9339 29.9901 31.7062C28.3618 32.4785 26.5166 32.7473 24.7168 32.4744C22.917 32.2015 21.2544 31.4008 19.9654 30.1861C18.6764 28.9715 17.8267 27.4048 17.5371 25.7089C17.2475 24.0129 17.5327 22.2741 18.3523 20.7398C19.1719 19.2054 20.484 17.9536 22.1021 17.1625C23.7201 16.3714 25.5617 16.0811 27.3649 16.3331C29.2043 16.5901 30.9071 17.3977 32.2219 18.6367C33.5368 19.8757 34.3939 21.4803 34.6666 23.2135Z" stroke="black" stroke-width="2" stroke-linecap="round" stroke-linejoin="round"/>
<path d="M37.9166 13.2706H37.9387" stroke="black" stroke-width="2" stroke-linecap="round" stroke-linejoin="round"/>
</svg>
