<svg width="45" height="47" viewBox="0 0 45 47" fill="none" xmlns="http://www.w3.org/2000/svg">
<path d="M2.65018 8.5L37.0514 43.6471M2.65018 8.5C3.93012 6.97079 5.84184 6 7.97769 6H19.6072M2.65018 8.5C1.62075 9.72991 1 11.321 1 13.0588V38.9412C1 42.8397 4.12402 46 7.97769 46H33.5625C37.4162 46 40.5402 42.8397 40.5402 38.9412V28.3529M19.6072 28.3529L4.48884 43.6471M36.092 9V8.84961M44 8.82609C44 14.0435 36.092 21 36.092 21C36.092 21 28.1839 14.0435 28.1839 8.82609C28.1839 4.50386 31.7245 1 36.092 1C40.4594 1 44 4.50386 44 8.82609Z" stroke="black" stroke-width="2" stroke-linecap="round" stroke-linejoin="round"/>
</svg>
