<svg width="78" height="59" viewBox="0 0 78 59" fill="none" xmlns="http://www.w3.org/2000/svg">
<path d="M6.19075 58.149H18.4198V28.4498L0.949707 15.3472V52.908C0.949707 55.808 3.29944 58.149 6.19075 58.149Z" fill="#4285F4"/>
<path d="M60.3481 58.149H72.5772C75.4773 58.149 77.8183 55.7993 77.8183 52.908V15.3472L60.3481 28.4498" fill="#34A853"/>
<path d="M60.3481 5.73882V28.45L77.8183 15.3474V8.35934C77.8183 1.87792 70.4197 -1.81702 65.2398 2.07009" fill="#FBBC04"/>
<path d="M18.4199 28.4495V5.73828L39.3841 21.4614L60.3483 5.73828V28.4495L39.3841 44.1726" fill="#EA4335"/>
<path d="M0.949707 8.35934V15.3474L18.4198 28.45V5.73882L13.5282 2.07009C8.33958 -1.81702 0.949707 1.87792 0.949707 8.35934Z" fill="#C5221F"/>
</svg>
