<svg width="74" height="74" viewBox="0 0 74 74" fill="none" xmlns="http://www.w3.org/2000/svg">
<path d="M24.9833 36.9997C24.9833 30.365 30.3636 24.985 37.0023 24.985C43.641 24.985 49.0242 30.365 49.0242 36.9997C49.0242 43.6345 43.641 49.0144 37.0023 49.0144C30.3636 49.0144 24.9833 43.6345 24.9833 36.9997ZM18.4845 36.9997C18.4845 47.221 26.7749 55.5065 37.0023 55.5065C47.2297 55.5065 55.5201 47.221 55.5201 36.9997C55.5201 26.7784 47.2297 18.493 37.0023 18.493C26.7749 18.493 18.4845 26.7784 18.4845 36.9997ZM51.9257 17.7592C51.9254 18.6146 52.1788 19.4509 52.6541 20.1623C53.1293 20.8737 53.8049 21.4283 54.5956 21.756C55.3862 22.0836 56.2563 22.1696 57.0958 22.0031C57.9353 21.8366 58.7066 21.425 59.312 20.8203C59.9175 20.2157 60.33 19.4453 60.4973 18.6064C60.6646 17.7675 60.5792 16.8978 60.252 16.1074C59.9248 15.317 59.3704 14.6413 58.6589 14.1658C57.9475 13.6903 57.1109 13.4363 56.255 13.436H56.2532C55.106 13.4365 54.0058 13.8921 53.1944 14.7027C52.383 15.5133 51.9267 16.6126 51.9257 17.7592ZM22.4329 66.3364C18.9169 66.1764 17.0059 65.5911 15.7359 65.0966C14.0522 64.4415 12.8509 63.6613 11.5878 62.4007C10.3247 61.1401 9.5429 59.9407 8.8903 58.258C8.39523 56.9893 7.80957 55.0789 7.64974 51.565C7.47491 47.766 7.44 46.6248 7.44 37C7.44 27.3753 7.47779 26.2372 7.64974 22.435C7.80986 18.9212 8.39985 17.0144 8.8903 15.742C9.54578 14.0593 10.3265 12.8587 11.5878 11.5964C12.8491 10.3341 14.0493 9.55274 15.7359 8.90054C17.0053 8.40577 18.9169 7.82046 22.4329 7.66072C26.2342 7.486 27.3761 7.45111 37.0023 7.45111C46.6285 7.45111 47.7715 7.48888 51.576 7.66072C55.092 7.82075 56.9999 8.41038 58.273 8.90054C59.9567 9.55274 61.1581 10.3358 62.4211 11.5964C63.6842 12.857 64.4632 14.0593 65.1186 15.742C65.6137 17.0107 66.1994 18.9212 66.3592 22.435C66.534 26.2372 66.5689 27.3753 66.5689 37C66.5689 46.6248 66.534 47.7628 66.3592 51.565C66.1991 55.0789 65.6105 56.9888 65.1186 58.258C64.4632 59.9407 63.6825 61.1413 62.4211 62.4007C61.1598 63.6601 59.9567 64.4415 58.273 65.0966C57.0036 65.5914 55.092 66.1767 51.576 66.3364C47.7747 66.5111 46.6328 66.546 37.0023 66.546C27.3718 66.546 26.2331 66.5111 22.4329 66.3364ZM22.1343 1.17676C18.2952 1.35149 15.6718 1.95987 13.3808 2.8508C11.0082 3.77087 8.99964 5.00521 6.99253 7.00794C4.98542 9.01068 3.75351 11.0212 2.8329 13.3924C1.94142 15.6835 1.33268 18.3038 1.15785 22.1406C0.980132 25.9835 0.939453 27.2121 0.939453 36.9997C0.939453 46.7874 0.980132 48.0159 1.15785 51.8588C1.33268 55.6959 1.94142 58.3159 2.8329 60.607C3.75351 62.9768 4.9857 64.9896 6.99253 66.9915C8.99936 68.9934 11.0082 70.226 13.3808 71.1487C15.6762 72.0396 18.2952 72.648 22.1343 72.8227C25.9815 72.9974 27.2088 73.041 37.0023 73.041C46.7958 73.041 48.0251 73.0003 51.8703 72.8227C55.7097 72.648 58.3313 72.0396 60.6238 71.1487C62.995 70.226 65.005 68.9942 67.0121 66.9915C69.0192 64.9888 70.2485 62.9768 71.1717 60.607C72.0632 58.3159 72.6748 55.6956 72.8468 51.8588C73.0216 48.0131 73.0623 46.7874 73.0623 36.9997C73.0623 27.2121 73.0216 25.9835 72.8468 22.1406C72.6719 18.3036 72.0632 15.6821 71.1717 13.3924C70.2485 11.0226 69.016 9.01385 67.0121 7.00794C65.0081 5.00203 62.995 3.77087 60.6266 2.8508C58.3313 1.95987 55.7094 1.34861 51.8732 1.17676C48.028 1.00203 46.7987 0.958496 37.0052 0.958496C27.2117 0.958496 25.9815 0.999151 22.1343 1.17676Z" fill="url(#paint0_radial_3_340)"/>
<path d="M24.9833 36.9997C24.9833 30.365 30.3636 24.985 37.0023 24.985C43.641 24.985 49.0242 30.365 49.0242 36.9997C49.0242 43.6345 43.641 49.0144 37.0023 49.0144C30.3636 49.0144 24.9833 43.6345 24.9833 36.9997ZM18.4845 36.9997C18.4845 47.221 26.7749 55.5065 37.0023 55.5065C47.2297 55.5065 55.5201 47.221 55.5201 36.9997C55.5201 26.7784 47.2297 18.493 37.0023 18.493C26.7749 18.493 18.4845 26.7784 18.4845 36.9997ZM51.9257 17.7592C51.9254 18.6146 52.1788 19.4509 52.6541 20.1623C53.1293 20.8737 53.8049 21.4283 54.5956 21.756C55.3862 22.0836 56.2563 22.1696 57.0958 22.0031C57.9353 21.8366 58.7066 21.425 59.312 20.8203C59.9175 20.2157 60.33 19.4453 60.4973 18.6064C60.6646 17.7675 60.5792 16.8978 60.252 16.1074C59.9248 15.317 59.3704 14.6413 58.6589 14.1658C57.9475 13.6903 57.1109 13.4363 56.255 13.436H56.2532C55.106 13.4365 54.0058 13.8921 53.1944 14.7027C52.383 15.5133 51.9267 16.6126 51.9257 17.7592ZM22.4329 66.3364C18.9169 66.1764 17.0059 65.5911 15.7359 65.0966C14.0522 64.4415 12.8509 63.6613 11.5878 62.4007C10.3247 61.1401 9.5429 59.9407 8.8903 58.258C8.39523 56.9893 7.80957 55.0789 7.64974 51.565C7.47491 47.766 7.44 46.6248 7.44 37C7.44 27.3753 7.47779 26.2372 7.64974 22.435C7.80986 18.9212 8.39985 17.0144 8.8903 15.742C9.54578 14.0593 10.3265 12.8587 11.5878 11.5964C12.8491 10.3341 14.0493 9.55274 15.7359 8.90054C17.0053 8.40577 18.9169 7.82046 22.4329 7.66072C26.2342 7.486 27.3761 7.45111 37.0023 7.45111C46.6285 7.45111 47.7715 7.48888 51.576 7.66072C55.092 7.82075 56.9999 8.41038 58.273 8.90054C59.9567 9.55274 61.1581 10.3358 62.4211 11.5964C63.6842 12.857 64.4632 14.0593 65.1186 15.742C65.6137 17.0107 66.1994 18.9212 66.3592 22.435C66.534 26.2372 66.5689 27.3753 66.5689 37C66.5689 46.6248 66.534 47.7628 66.3592 51.565C66.1991 55.0789 65.6105 56.9888 65.1186 58.258C64.4632 59.9407 63.6825 61.1413 62.4211 62.4007C61.1598 63.6601 59.9567 64.4415 58.273 65.0966C57.0036 65.5914 55.092 66.1767 51.576 66.3364C47.7747 66.5111 46.6328 66.546 37.0023 66.546C27.3718 66.546 26.2331 66.5111 22.4329 66.3364ZM22.1343 1.17676C18.2952 1.35149 15.6718 1.95987 13.3808 2.8508C11.0082 3.77087 8.99964 5.00521 6.99253 7.00794C4.98542 9.01068 3.75351 11.0212 2.8329 13.3924C1.94142 15.6835 1.33268 18.3038 1.15785 22.1406C0.980132 25.9835 0.939453 27.2121 0.939453 36.9997C0.939453 46.7874 0.980132 48.0159 1.15785 51.8588C1.33268 55.6959 1.94142 58.3159 2.8329 60.607C3.75351 62.9768 4.9857 64.9896 6.99253 66.9915C8.99936 68.9934 11.0082 70.226 13.3808 71.1487C15.6762 72.0396 18.2952 72.648 22.1343 72.8227C25.9815 72.9974 27.2088 73.041 37.0023 73.041C46.7958 73.041 48.0251 73.0003 51.8703 72.8227C55.7097 72.648 58.3313 72.0396 60.6238 71.1487C62.995 70.226 65.005 68.9942 67.0121 66.9915C69.0192 64.9888 70.2485 62.9768 71.1717 60.607C72.0632 58.3159 72.6748 55.6956 72.8468 51.8588C73.0216 48.0131 73.0623 46.7874 73.0623 36.9997C73.0623 27.2121 73.0216 25.9835 72.8468 22.1406C72.6719 18.3036 72.0632 15.6821 71.1717 13.3924C70.2485 11.0226 69.016 9.01385 67.0121 7.00794C65.0081 5.00203 62.995 3.77087 60.6266 2.8508C58.3313 1.95987 55.7094 1.34861 51.8732 1.17676C48.028 1.00203 46.7987 0.958496 37.0052 0.958496C27.2117 0.958496 25.9815 0.999151 22.1343 1.17676Z" fill="url(#paint1_radial_3_340)"/>
<defs>
<radialGradient id="paint0_radial_3_340" cx="0" cy="0" r="1" gradientUnits="userSpaceOnUse" gradientTransform="translate(10.5218 73.3815) scale(94.154 94.0976)">
<stop offset="0.09" stop-color="#FA8F21"/>
<stop offset="0.78" stop-color="#D82D7E"/>
</radialGradient>
<radialGradient id="paint1_radial_3_340" cx="0" cy="0" r="1" gradientUnits="userSpaceOnUse" gradientTransform="translate(44.6805 76.6108) scale(74.2064 74.1619)">
<stop offset="0.64" stop-color="#8C3AAA" stop-opacity="0"/>
<stop offset="1" stop-color="#8C3AAA"/>
</radialGradient>
</defs>
</svg>
