<svg width="66" height="67" viewBox="0 0 66 67" fill="none" xmlns="http://www.w3.org/2000/svg">
<path d="M0.000244141 66.3606L4.73559 48.7691C0.916653 41.9163 -0.296663 33.9197 1.31829 26.2466C2.93325 18.5735 7.26814 11.7387 13.5275 6.9963C19.7869 2.25392 27.5509 -0.0779054 35.3948 0.428723C43.2387 0.935352 50.6364 4.24645 56.2303 9.75442C61.8243 15.2624 65.2392 22.5978 65.8486 30.4145C66.458 38.2313 64.2209 46.005 59.5478 52.3093C54.8747 58.6136 48.0791 63.0256 40.408 64.7356C32.7369 66.4456 24.7049 65.3389 17.7858 61.6187L0.000244141 66.3606ZM18.6434 55.0358L19.7433 55.6867C24.7549 58.6496 30.6085 59.8758 36.3917 59.174C42.1749 58.4722 47.563 55.8819 51.7162 51.8068C55.8694 47.7317 58.5545 42.4006 59.3531 36.6444C60.1516 30.8882 59.0187 25.0302 56.131 19.9833C53.2432 14.9364 48.7628 10.984 43.388 8.74216C38.0131 6.50031 32.0457 6.09488 26.4157 7.58907C20.7858 9.08325 15.8094 12.3931 12.2623 17.0029C8.71509 21.6126 6.79633 27.2633 6.80498 33.0743C6.80026 37.8926 8.13621 42.6177 10.6641 46.7236L11.3539 47.8579L8.70657 57.6764L18.6434 55.0358Z" fill="#00D95F"/>
<path fill-rule="evenodd" clip-rule="evenodd" d="M45.3398 37.5912C44.695 37.0724 43.94 36.7073 43.1323 36.5236C42.3246 36.3399 41.4855 36.3425 40.679 36.5312C39.4672 37.0333 38.6842 38.9301 37.9012 39.8784C37.7361 40.1058 37.4935 40.2652 37.2189 40.3269C36.9443 40.3885 36.6566 40.3481 36.4097 40.2132C31.9733 38.48 28.2546 35.3016 25.8577 31.1943C25.6533 30.9379 25.5565 30.6125 25.5878 30.2865C25.6191 29.9604 25.776 29.6592 26.0255 29.4463C26.8988 28.5839 27.5401 27.5158 27.8898 26.3408C27.9675 25.0447 27.6698 23.7537 27.0323 22.6216C26.5394 21.0346 25.6013 19.6215 24.329 18.5492C23.6728 18.2548 22.9451 18.1561 22.2339 18.265C21.5227 18.3739 20.8582 18.6857 20.3207 19.1629C19.3876 19.9659 18.6469 20.9675 18.1533 22.0939C17.6596 23.2203 17.4256 24.4428 17.4683 25.6713C17.4712 26.3613 17.5589 27.0482 17.7293 27.7169C18.1623 29.3234 18.828 30.8582 19.7055 32.2728C20.3386 33.3564 21.0294 34.4055 21.7749 35.4155C24.1977 38.7329 27.2431 41.5496 30.7422 43.7092C32.4981 44.8066 34.3748 45.6988 36.3352 46.3683C38.3716 47.2891 40.62 47.6425 42.8416 47.3911C44.1074 47.2 45.3067 46.7015 46.334 45.9395C47.3613 45.1775 48.1851 44.1753 48.7328 43.0211C49.0547 42.3239 49.1524 41.5444 49.0125 40.7896C48.6769 39.2462 46.6075 38.335 45.3398 37.5912Z" fill="#00D95F"/>
</svg>
