<svg width="76" height="54" viewBox="0 0 76 54" fill="none" xmlns="http://www.w3.org/2000/svg">
<path d="M73.7133 8.8441C72.8515 5.6041 70.302 3.0481 67.0583 2.1721C61.1932 0.600098 37.6613 0.600098 37.6613 0.600098C37.6613 0.600098 14.1413 0.600098 8.26428 2.1721C5.03252 3.0361 2.48303 5.5921 1.60926 8.8441C0.0412598 14.7241 0.0412598 27.0001 0.0412598 27.0001C0.0412598 27.0001 0.0412598 39.2761 1.60926 45.1561C2.47106 48.3961 5.02055 50.9521 8.26428 51.8281C14.1413 53.4001 37.6613 53.4001 37.6613 53.4001C37.6613 53.4001 61.1932 53.4001 67.0583 51.8281C70.29 50.9641 72.8395 48.4081 73.7133 45.1561C75.2813 39.2761 75.2813 27.0001 75.2813 27.0001C75.2813 27.0001 75.2813 14.7241 73.7133 8.8441Z" fill="#FF3000"/>
<path d="M30.1444 38.3161L49.6906 27.0001L30.1444 15.6841V38.3161Z" fill="white"/>
</svg>
